<?xml version="1.0" encoding="UTF-8" standalone="no"?>
<!-- Created with Inkscape (http://www.inkscape.org/) -->

<svg
   xmlns:dc="http://purl.org/dc/elements/1.1/"
   xmlns:cc="http://creativecommons.org/ns#"
   xmlns:rdf="http://www.w3.org/1999/02/22-rdf-syntax-ns#"
   xmlns:svg="http://www.w3.org/2000/svg"
   xmlns="http://www.w3.org/2000/svg"
   xmlns:sodipodi="http://sodipodi.sourceforge.net/DTD/sodipodi-0.dtd"
   xmlns:inkscape="http://www.inkscape.org/namespaces/inkscape"
   width="210mm"
   height="297mm"
   viewBox="0 0 210 297"
   version="1.1"
   id="svg8"
   inkscape:version="0.92.3 (2405546, 2018-03-11)"
   sodipodi:docname="logo.svg">
  <defs
     id="defs2" />
  <sodipodi:namedview
     id="base"
     pagecolor="#ffffff"
     bordercolor="#666666"
     borderopacity="1.0"
     inkscape:pageopacity="0.0"
     inkscape:pageshadow="2"
     inkscape:zoom="0.49497475"
     inkscape:cx="-190.33726"
     inkscape:cy="866.31967"
     inkscape:document-units="mm"
     inkscape:current-layer="layer1"
     showgrid="false"
     showguides="false"
     inkscape:window-width="1920"
     inkscape:window-height="1017"
     inkscape:window-x="-8"
     inkscape:window-y="-8"
     inkscape:window-maximized="1" />
  <metadata
     id="metadata5">
    <rdf:RDF>
      <cc:Work
         rdf:about="">
        <dc:format>image/svg+xml</dc:format>
        <dc:type
           rdf:resource="http://purl.org/dc/dcmitype/StillImage" />
        <dc:title></dc:title>
      </cc:Work>
    </rdf:RDF>
  </metadata>
  <g
     inkscape:label="Layer 1"
     inkscape:groupmode="layer"
     id="layer1">
    <text
       xml:space="preserve"
       style="font-style:normal;font-weight:normal;font-size:3.52777767px;line-height:0px;font-family:sans-serif;letter-spacing:0px;word-spacing:0px;fill:#000000;fill-opacity:1;stroke:none;stroke-width:0.26458332"
       x="60.00201"
       y="65.010048"
       id="text828"><tspan
         sodipodi:role="line"
         id="tspan826"
         x="60.00201"
         y="65.010048"
         style="font-style:normal;font-variant:normal;font-weight:normal;font-stretch:normal;font-size:22.57777786px;font-family:'Curlz MT';-inkscape-font-specification:'Curlz MT';stroke-width:0.26458332">Providence</tspan></text>
    <path
       style="fill:#ff8f00;fill-opacity:0.53439152;stroke:none;stroke-width:0.26458332px;stroke-linecap:butt;stroke-linejoin:miter;stroke-opacity:1"
       d="m 63.240135,10.998963 c 0,0 -1.02696,0.0193 -1.469982,-0.20045 -0.465586,-0.23094 -0.648463,-0.8495599 -1.102487,-1.1024799 -0.339806,-0.18929 -1.135896,-0.26727 -1.135896,-0.26727 0,0 0.751735,-1.53294 1.436573,-1.97112 0.526142,-0.33664 1.232827,-0.52417 1.837479,-0.36749 0.565933,0.14665 1.336347,1.13589 1.336347,1.13589 0,0 -0.317009,-1.1971 -0.167042,-1.77066 0.133625,-0.51106 0.536987,-0.92113 0.902033,-1.30294 0.44483,-0.46525 1.5368,-1.1693 1.5368,-1.1693 0,0 1.026603,1.61949 1.102487,2.53906 0.03021,0.36608 -0.142065,0.72375 -0.267268,1.06908 -0.13072,0.36055 -0.501132,1.03567 -0.501132,1.03567 0,0 0.909456,-0.63564 1.436574,-0.66818 0.362051,-0.0224 0.700656,0.195 1.035669,0.33409 0.404791,0.16806 1.169305,0.60136 1.169305,0.60136 0,0 -0.66058,0.009 -0.902036,0.20045 -0.281122,0.22265 -0.17768,0.75795 -0.46772,0.9688499 -0.463652,0.33715 -1.703845,0.23386 -1.703845,0.23386 0,0 1.061161,0.59076 1.403167,1.06908 0.163862,0.22917 0.09718,0.57722 0.267269,0.80181 0.227501,0.3004 0.935442,0.63476 0.935442,0.63476 0,0 -1.039625,0.70502 -1.637024,0.73499 -0.492402,0.0247 -0.995512,-0.19043 -1.403165,-0.46772 -0.372552,-0.25341 -0.868627,-1.03567 -0.868627,-1.03567 0,0 0.152727,0.91038 -0.03341,1.30294 -0.226668,0.47804 -0.82834,0.66184 -1.202711,1.03567 -0.458138,0.45748 -1.269532,1.46999 -1.269532,1.46999 0,0 -0.757033,-1.53863 -0.902033,-2.37202 -0.101189,-0.58159 -0.176613,-1.21896 0.03341,-1.77066 0.109584,-0.28786 0.601355,-0.70159 0.601355,-0.70159 z"
       id="path830"
       inkscape:connector-curvature="0"
       sodipodi:nodetypes="csscsscssccscsscsscsscsscsscssc" />
    <g
       id="g4625"
       style="stroke-width:1.5;stroke-miterlimit:4;stroke-dasharray:none">
      <g
         id="g874"
         style="stroke-width:1.5;stroke-miterlimit:4;stroke-dasharray:none" />
      <path
         style="color:#000000;font-style:normal;font-variant:normal;font-weight:normal;font-stretch:normal;font-size:medium;line-height:normal;font-family:sans-serif;font-variant-ligatures:normal;font-variant-position:normal;font-variant-caps:normal;font-variant-numeric:normal;font-variant-alternates:normal;font-feature-settings:normal;text-indent:0;text-align:start;text-decoration:none;text-decoration-line:none;text-decoration-style:solid;text-decoration-color:#000000;letter-spacing:normal;word-spacing:normal;text-transform:none;writing-mode:lr-tb;direction:ltr;text-orientation:mixed;dominant-baseline:auto;baseline-shift:baseline;text-anchor:start;white-space:normal;shape-padding:0;clip-rule:nonzero;display:inline;overflow:visible;visibility:visible;opacity:1;isolation:auto;mix-blend-mode:normal;color-interpolation:sRGB;color-interpolation-filters:linearRGB;solid-color:#000000;solid-opacity:1;vector-effect:none;fill:#000000;fill-opacity:1;fill-rule:nonzero;stroke:none;stroke-width:1.5;stroke-linecap:round;stroke-linejoin:miter;stroke-miterlimit:4;stroke-dasharray:none;stroke-dashoffset:0;stroke-opacity:1;color-rendering:auto;image-rendering:auto;shape-rendering:auto;text-rendering:auto;enable-background:accumulate"
         d="m 32.214844,53.070312 c -0.566045,0.105941 -1.091791,0.326995 -1.552735,0.646485 -1.843774,1.277958 -2.781867,3.823308 -3.398437,6.597656 -1.23314,5.548697 -0.972656,12.271485 -0.972656,12.271485 a 0.750075,0.750075 0 1 0 1.498046,-0.05469 c 0,0 -0.229403,-6.64192 0.9375,-11.892578 0.583452,-2.625329 1.567279,-4.839302 2.791016,-5.6875 0.611869,-0.424099 1.255892,-0.578924 2.158203,-0.369141 0.902311,0.209783 2.060764,0.837871 3.447266,2.06836 5.804972,5.151779 10.611128,8.691819 19.214844,10.904297 8.603715,2.212477 20.973916,3.140282 42.146484,3.283203 42.343145,0.285826 57.993295,-2.831944 75.125005,-0.142579 17.01392,2.670876 23.80664,13.296875 23.80664,13.296876 a 0.75034465,0.75034465 0 1 0 1.26171,-0.8125 c 0,0 -7.27474,-11.210011 -24.83593,-13.966797 -17.4434,-2.738297 -33.08107,0.410309 -75.347659,0.125 C 77.361839,69.195242 65.077299,68.252502 56.712891,66.101562 48.348482,63.950623 43.872189,60.634776 38.117188,55.527344 c -1.503492,-1.334315 -2.844811,-2.114061 -4.101563,-2.40625 -0.628376,-0.146095 -1.234736,-0.156722 -1.800781,-0.05078 z"
         id="path880"
         inkscape:connector-curvature="0" />
      <path
         style="color:#000000;font-style:normal;font-variant:normal;font-weight:normal;font-stretch:normal;font-size:medium;line-height:normal;font-family:sans-serif;font-variant-ligatures:normal;font-variant-position:normal;font-variant-caps:normal;font-variant-numeric:normal;font-variant-alternates:normal;font-feature-settings:normal;text-indent:0;text-align:start;text-decoration:none;text-decoration-line:none;text-decoration-style:solid;text-decoration-color:#000000;letter-spacing:normal;word-spacing:normal;text-transform:none;writing-mode:lr-tb;direction:ltr;text-orientation:mixed;dominant-baseline:auto;baseline-shift:baseline;text-anchor:start;white-space:normal;shape-padding:0;clip-rule:nonzero;display:inline;overflow:visible;visibility:visible;opacity:1;isolation:auto;mix-blend-mode:normal;color-interpolation:sRGB;color-interpolation-filters:linearRGB;solid-color:#000000;solid-opacity:1;vector-effect:none;fill:#000000;fill-opacity:1;fill-rule:nonzero;stroke:none;stroke-width:1.5;stroke-linecap:round;stroke-linejoin:miter;stroke-miterlimit:4;stroke-dasharray:none;stroke-dashoffset:0;stroke-opacity:1;color-rendering:auto;image-rendering:auto;shape-rendering:auto;text-rendering:auto;enable-background:accumulate"
         d="m 28.322266,14.341797 a 0.750075,0.750075 0 0 0 -0.695313,0.929687 c 0,0 1.077032,4.644806 2.771485,10.134766 1.694452,5.48996 3.962714,11.805381 6.550781,15.345703 2.567967,3.512826 7.311456,7.277557 11.435547,10.226563 4.124091,2.949005 7.632812,5.052734 7.632812,5.052734 a 0.750075,0.750075 0 1 0 0.771484,-1.285156 c 0,0 -3.459811,-2.076926 -7.53125,-4.988282 -4.071438,-2.911355 -8.753578,-6.686019 -11.097656,-9.892578 -2.323978,-3.179063 -4.653116,-9.467099 -6.330078,-14.90039 -1.676962,-5.433291 -2.742187,-10.03125 -2.742187,-10.03125 a 0.750075,0.750075 0 0 0 -0.765625,-0.591797 z"
         id="path882"
         inkscape:connector-curvature="0" />
      <path
         style="color:#000000;font-style:normal;font-variant:normal;font-weight:normal;font-stretch:normal;font-size:medium;line-height:normal;font-family:sans-serif;font-variant-ligatures:normal;font-variant-position:normal;font-variant-caps:normal;font-variant-numeric:normal;font-variant-alternates:normal;font-feature-settings:normal;text-indent:0;text-align:start;text-decoration:none;text-decoration-line:none;text-decoration-style:solid;text-decoration-color:#000000;letter-spacing:normal;word-spacing:normal;text-transform:none;writing-mode:lr-tb;direction:ltr;text-orientation:mixed;dominant-baseline:auto;baseline-shift:baseline;text-anchor:start;white-space:normal;shape-padding:0;clip-rule:nonzero;display:inline;overflow:visible;visibility:visible;opacity:1;isolation:auto;mix-blend-mode:normal;color-interpolation:sRGB;color-interpolation-filters:linearRGB;solid-color:#000000;solid-opacity:1;vector-effect:none;fill:#000000;fill-opacity:1;fill-rule:nonzero;stroke:none;stroke-width:1.5;stroke-linecap:round;stroke-linejoin:miter;stroke-miterlimit:4;stroke-dasharray:none;stroke-dashoffset:0;stroke-opacity:1;color-rendering:auto;image-rendering:auto;shape-rendering:auto;text-rendering:auto;enable-background:accumulate"
         d="m 66.748047,8.6269531 a 0.750075,0.750075 0 0 0 -0.199219,0.037109 c 0,0 -3.533494,1.1173378 -7.65625,2.8945315 -4.122756,1.777193 -8.836465,4.165063 -11.34375,6.982422 -3.887771,4.368568 -7.53834,10.711913 -6.232422,16.699218 0.844601,3.87228 4.763729,7.611189 8.41211,10.53125 3.64838,2.920062 7.101562,4.955079 7.101562,4.955078 a 0.750075,0.750075 0 1 0 0.761719,-1.291015 c 0,0 -3.372116,-1.991684 -6.925781,-4.835938 -3.553666,-2.844254 -7.214259,-6.605584 -7.884766,-9.679687 -1.130074,-5.181101 2.175138,-11.21027 5.886719,-15.38086 2.150368,-2.416302 6.772056,-4.859278 10.818359,-6.603515 4.046304,-1.744237 7.515625,-2.839844 7.515625,-2.839844 A 0.750075,0.750075 0 0 0 66.748047,8.6269531 Z"
         id="path884"
         inkscape:connector-curvature="0" />
      <path
         style="color:#000000;font-style:normal;font-variant:normal;font-weight:normal;font-stretch:normal;font-size:medium;line-height:normal;font-family:sans-serif;font-variant-ligatures:normal;font-variant-position:normal;font-variant-caps:normal;font-variant-numeric:normal;font-variant-alternates:normal;font-feature-settings:normal;text-indent:0;text-align:start;text-decoration:none;text-decoration-line:none;text-decoration-style:solid;text-decoration-color:#000000;letter-spacing:normal;word-spacing:normal;text-transform:none;writing-mode:lr-tb;direction:ltr;text-orientation:mixed;dominant-baseline:auto;baseline-shift:baseline;text-anchor:start;white-space:normal;shape-padding:0;clip-rule:nonzero;display:inline;overflow:visible;visibility:visible;opacity:1;isolation:auto;mix-blend-mode:normal;color-interpolation:sRGB;color-interpolation-filters:linearRGB;solid-color:#000000;solid-opacity:1;vector-effect:none;fill:#000000;fill-opacity:1;fill-rule:nonzero;stroke:none;stroke-width:1.5;stroke-linecap:round;stroke-linejoin:miter;stroke-miterlimit:4;stroke-dasharray:none;stroke-dashoffset:0;stroke-opacity:1;color-rendering:auto;image-rendering:auto;shape-rendering:auto;text-rendering:auto;enable-background:accumulate"
         d="m 80.308594,20.828125 c 0,0 -3.532178,0.0244 -7.794922,0.474609 -4.262744,0.450206 -9.241725,1.280854 -12.355469,3.103516 -3.272577,1.915637 -6.516337,5.061595 -7.279297,8.966797 -0.734333,3.758673 0.544285,8.20383 3.359375,10.847656 7.378269,6.929392 19.154746,5.894616 28.648438,7.013672 7.970362,0.939501 23.673831,-0.05078 23.673831,-0.05078 a 0.750075,0.750075 0 1 0 -0.0918,-1.496094 c 0,0 -15.79134,0.954243 -23.40625,0.05664 -9.728701,-1.146758 -21.066316,-0.294148 -27.796875,-6.615235 -2.351162,-2.208122 -3.540662,-6.271509 -2.916016,-9.46875 0.634763,-3.249025 3.548037,-6.192151 6.566407,-7.958984 2.662949,-1.558785 7.571851,-2.466519 11.753906,-2.908203 4.182055,-0.441684 7.65039,-0.464844 7.65039,-0.464844 a 0.750075,0.750075 0 1 0 -0.01172,-1.5 z"
         id="path886"
         inkscape:connector-curvature="0" />
      <path
         style="color:#000000;font-style:normal;font-variant:normal;font-weight:normal;font-stretch:normal;font-size:medium;line-height:normal;font-family:sans-serif;font-variant-ligatures:normal;font-variant-position:normal;font-variant-caps:normal;font-variant-numeric:normal;font-variant-alternates:normal;font-feature-settings:normal;text-indent:0;text-align:start;text-decoration:none;text-decoration-line:none;text-decoration-style:solid;text-decoration-color:#000000;letter-spacing:normal;word-spacing:normal;text-transform:none;writing-mode:lr-tb;direction:ltr;text-orientation:mixed;dominant-baseline:auto;baseline-shift:baseline;text-anchor:start;white-space:normal;shape-padding:0;clip-rule:nonzero;display:inline;overflow:visible;visibility:visible;opacity:1;isolation:auto;mix-blend-mode:normal;color-interpolation:sRGB;color-interpolation-filters:linearRGB;solid-color:#000000;solid-opacity:1;vector-effect:none;fill:#000000;fill-opacity:1;fill-rule:nonzero;stroke:none;stroke-width:1.5;stroke-linecap:round;stroke-linejoin:miter;stroke-miterlimit:4;stroke-dasharray:none;stroke-dashoffset:0;stroke-opacity:1;color-rendering:auto;image-rendering:auto;shape-rendering:auto;text-rendering:auto;enable-background:accumulate"
         d="m 24.216797,40.730469 c -3.022739,0.344427 -5.639007,3.338678 -7.664063,6.123047 -2.025056,2.784368 -3.396484,5.484375 -3.396484,5.484375 a 0.75032106,0.75032106 0 1 0 1.337891,0.679687 c 0,0 1.328543,-2.611739 3.271484,-5.283203 1.942941,-2.671464 4.564605,-5.277392 6.621094,-5.511719 4.002869,-0.456108 8.002978,2.224987 11.683593,5.582032 3.680616,3.357044 6.915683,7.285169 9.771485,9.058593 5.340169,3.31619 9.859375,4.927735 9.859375,4.927735 a 0.750075,0.750075 0 1 0 0.503906,-1.41211 c 0,0 -4.368583,-1.55763 -9.572266,-4.789062 -2.416123,-1.500388 -5.771473,-5.445691 -9.552734,-8.894532 -3.78126,-3.44884 -8.111197,-6.506322 -12.863281,-5.964843 z"
         id="path888"
         inkscape:connector-curvature="0" />
      <path
         style="color:#000000;font-style:normal;font-variant:normal;font-weight:normal;font-stretch:normal;font-size:medium;line-height:normal;font-family:sans-serif;font-variant-ligatures:normal;font-variant-position:normal;font-variant-caps:normal;font-variant-numeric:normal;font-variant-alternates:normal;font-feature-settings:normal;text-indent:0;text-align:start;text-decoration:none;text-decoration-line:none;text-decoration-style:solid;text-decoration-color:#000000;letter-spacing:normal;word-spacing:normal;text-transform:none;writing-mode:lr-tb;direction:ltr;text-orientation:mixed;dominant-baseline:auto;baseline-shift:baseline;text-anchor:start;white-space:normal;shape-padding:0;clip-rule:nonzero;display:inline;overflow:visible;visibility:visible;opacity:1;isolation:auto;mix-blend-mode:normal;color-interpolation:sRGB;color-interpolation-filters:linearRGB;solid-color:#000000;solid-opacity:1;vector-effect:none;fill:#000000;fill-opacity:1;fill-rule:nonzero;stroke:none;stroke-width:1.5;stroke-linecap:round;stroke-linejoin:miter;stroke-miterlimit:4;stroke-dasharray:none;stroke-dashoffset:0;stroke-opacity:1;color-rendering:auto;image-rendering:auto;shape-rendering:auto;text-rendering:auto;enable-background:accumulate"
         d="m 161.54297,63.191406 a 0.75030767,0.75030767 0 1 0 0.043,1.5 c 0,0 5.29986,-0.15772 11.68164,0.06641 6.38178,0.224127 13.87729,0.858919 18.0332,2.31836 4.36353,1.532348 10.41253,5.418971 15.30469,8.914062 4.89216,3.495092 8.65625,6.59375 8.65625,6.59375 a 0.750075,0.750075 0 1 0 0.95312,-1.158203 c 0,0 -3.80103,-3.128949 -8.73828,-6.65625 -4.93724,-3.5273 -10.98312,-7.458804 -15.67773,-9.107422 -4.54688,-1.596735 -12.04319,-2.176337 -18.47852,-2.402343 -6.43533,-0.226007 -11.77734,-0.06836 -11.77734,-0.06836 z"
         id="path890"
         inkscape:connector-curvature="0" />
      <path
         style="color:#000000;font-style:normal;font-variant:normal;font-weight:normal;font-stretch:normal;font-size:medium;line-height:normal;font-family:sans-serif;font-variant-ligatures:normal;font-variant-position:normal;font-variant-caps:normal;font-variant-numeric:normal;font-variant-alternates:normal;font-feature-settings:normal;text-indent:0;text-align:start;text-decoration:none;text-decoration-line:none;text-decoration-style:solid;text-decoration-color:#000000;letter-spacing:normal;word-spacing:normal;text-transform:none;writing-mode:lr-tb;direction:ltr;text-orientation:mixed;dominant-baseline:auto;baseline-shift:baseline;text-anchor:start;white-space:normal;shape-padding:0;clip-rule:nonzero;display:inline;overflow:visible;visibility:visible;opacity:1;isolation:auto;mix-blend-mode:normal;color-interpolation:sRGB;color-interpolation-filters:linearRGB;solid-color:#000000;solid-opacity:1;vector-effect:none;fill:#000000;fill-opacity:1;fill-rule:nonzero;stroke:none;stroke-width:1.5;stroke-linecap:round;stroke-linejoin:miter;stroke-miterlimit:4;stroke-dasharray:none;stroke-dashoffset:0;stroke-opacity:1;color-rendering:auto;image-rendering:auto;shape-rendering:auto;text-rendering:auto;enable-background:accumulate"
         d="m 180.77539,57.822266 c -9.4808,-0.01606 -17.5293,0.55664 -17.5293,0.55664 a 0.750075,0.750075 0 1 0 0.10547,1.496094 c 0,0 8.00276,-0.568684 17.42188,-0.552734 9.41911,0.01595 20.30888,0.671273 25.73828,2.902343 3.59607,1.477711 9.23425,4.84829 13.92383,7.833985 4.68957,2.985694 8.45508,5.589844 8.45507,5.589844 a 0.750075,0.750075 0 1 0 0.85352,-1.232422 c 0,0 -3.78566,-2.620342 -8.50195,-5.623047 -4.7163,-3.002705 -10.3376,-6.384298 -14.16016,-7.955078 -5.96648,-2.451768 -16.82584,-2.999571 -26.30664,-3.015625 z"
         id="path892"
         inkscape:connector-curvature="0" />
      <path
         style="color:#000000;font-style:normal;font-variant:normal;font-weight:normal;font-stretch:normal;font-size:medium;line-height:normal;font-family:sans-serif;font-variant-ligatures:normal;font-variant-position:normal;font-variant-caps:normal;font-variant-numeric:normal;font-variant-alternates:normal;font-feature-settings:normal;text-indent:0;text-align:start;text-decoration:none;text-decoration-line:none;text-decoration-style:solid;text-decoration-color:#000000;letter-spacing:normal;word-spacing:normal;text-transform:none;writing-mode:lr-tb;direction:ltr;text-orientation:mixed;dominant-baseline:auto;baseline-shift:baseline;text-anchor:start;white-space:normal;shape-padding:0;clip-rule:nonzero;display:inline;overflow:visible;visibility:visible;opacity:1;isolation:auto;mix-blend-mode:normal;color-interpolation:sRGB;color-interpolation-filters:linearRGB;solid-color:#000000;solid-opacity:1;vector-effect:none;fill:#000000;fill-opacity:1;fill-rule:nonzero;stroke:none;stroke-width:1.5;stroke-linecap:round;stroke-linejoin:miter;stroke-miterlimit:4;stroke-dasharray:none;stroke-dashoffset:0;stroke-opacity:1;color-rendering:auto;image-rendering:auto;shape-rendering:auto;text-rendering:auto;enable-background:accumulate"
         d="m 228.64648,38.730469 a 0.750075,0.750075 0 0 0 -0.40234,0.123047 c 0,0 -3.83521,2.459589 -8.83398,5.126953 -4.99878,2.667363 -11.18415,5.529451 -15.67578,6.333984 -11.57713,2.073673 -41.75586,3.169922 -41.75586,3.169922 a 0.750075,0.750075 0 1 0 0.0547,1.498047 c 0,0 30.03927,-1.05497 41.9668,-3.191406 4.8553,-0.869673 11.06184,-3.790728 16.11719,-6.488282 5.05535,-2.697553 8.9375,-5.185546 8.9375,-5.185546 a 0.750075,0.750075 0 0 0 -0.40821,-1.386719 z"
         id="path894"
         inkscape:connector-curvature="0" />
      <path
         style="color:#000000;font-style:normal;font-variant:normal;font-weight:normal;font-stretch:normal;font-size:medium;line-height:normal;font-family:sans-serif;font-variant-ligatures:normal;font-variant-position:normal;font-variant-caps:normal;font-variant-numeric:normal;font-variant-alternates:normal;font-feature-settings:normal;text-indent:0;text-align:start;text-decoration:none;text-decoration-line:none;text-decoration-style:solid;text-decoration-color:#000000;letter-spacing:normal;word-spacing:normal;text-transform:none;writing-mode:lr-tb;direction:ltr;text-orientation:mixed;dominant-baseline:auto;baseline-shift:baseline;text-anchor:start;white-space:normal;shape-padding:0;clip-rule:nonzero;display:inline;overflow:visible;visibility:visible;opacity:1;isolation:auto;mix-blend-mode:normal;color-interpolation:sRGB;color-interpolation-filters:linearRGB;solid-color:#000000;solid-opacity:1;vector-effect:none;fill:#000000;fill-opacity:1;fill-rule:nonzero;stroke:none;stroke-width:1.5;stroke-linecap:round;stroke-linejoin:miter;stroke-miterlimit:4;stroke-dasharray:none;stroke-dashoffset:0;stroke-opacity:1;color-rendering:auto;image-rendering:auto;shape-rendering:auto;text-rendering:auto;enable-background:accumulate"
         d="m 213.93164,-1.7636719 a 0.750075,0.750075 0 0 0 -0.50586,1.2949219 c 0,0 8.32721,8.3081257 7.66016,16.373047 -0.34024,4.113521 -2.38381,9.713936 -5.61524,14.794922 -3.23142,5.080986 -7.64591,9.647319 -12.60937,11.86914 -9.19899,4.11779 -29.5765,5.999655 -47.51172,6.751953 -17.93522,0.752299 -33.50586,0.44336 -33.50586,0.44336 a 0.75014307,0.75014307 0 1 0 -0.0293,1.5 c 0,0 15.60899,0.309228 33.59766,-0.445313 17.98867,-0.75454 38.27971,-2.50174 48.0625,-6.880859 5.35582,-2.397454 9.91813,-7.176242 13.26172,-12.433594 3.34359,-5.257352 5.47466,-10.990612 5.8457,-15.476562 0.75548,-9.1340203 -8.10937,-17.5703128 -8.10937,-17.5703128 a 0.750075,0.750075 0 0 0 -0.54102,-0.2207031 z"
         id="path896"
         inkscape:connector-curvature="0" />
    </g>
  </g>
</svg>
