<?xml version="1.0" encoding="UTF-8" standalone="no"?>
<!-- Created with Inkscape (http://www.inkscape.org/) -->

<svg
   xmlns:dc="http://purl.org/dc/elements/1.1/"
   xmlns:cc="http://creativecommons.org/ns#"
   xmlns:rdf="http://www.w3.org/1999/02/22-rdf-syntax-ns#"
   xmlns:svg="http://www.w3.org/2000/svg"
   xmlns="http://www.w3.org/2000/svg"
   xmlns:sodipodi="http://sodipodi.sourceforge.net/DTD/sodipodi-0.dtd"
   xmlns:inkscape="http://www.inkscape.org/namespaces/inkscape"
   width="210mm"
   height="297mm"
   viewBox="0 0 210 297"
   version="1.1"
   id="svg8"
   inkscape:version="0.92.3 (2405546, 2018-03-11)"
   sodipodi:docname="nr4sketch.svg">
  <defs
     id="defs2" />
  <sodipodi:namedview
     id="base"
     pagecolor="#ffffff"
     bordercolor="#666666"
     borderopacity="1.0"
     inkscape:pageopacity="0.0"
     inkscape:pageshadow="2"
     inkscape:zoom="7.9195959"
     inkscape:cx="288.68653"
     inkscape:cy="594.61668"
     inkscape:document-units="mm"
     inkscape:current-layer="layer1"
     showgrid="false"
     inkscape:window-width="1920"
     inkscape:window-height="1017"
     inkscape:window-x="-8"
     inkscape:window-y="-8"
     inkscape:window-maximized="1" />
  <metadata
     id="metadata5">
    <rdf:RDF>
      <cc:Work
         rdf:about="">
        <dc:format>image/svg+xml</dc:format>
        <dc:type
           rdf:resource="http://purl.org/dc/dcmitype/StillImage" />
        <dc:title></dc:title>
      </cc:Work>
    </rdf:RDF>
  </metadata>
  <g
     inkscape:label="Layer 1"
     inkscape:groupmode="layer"
     id="layer1">
    <path
       style="opacity:1;fill:#ff2a2a;fill-opacity:0.85185188;stroke:none;stroke-width:45.35433197;stroke-linecap:butt;stroke-linejoin:round;stroke-miterlimit:4;stroke-dasharray:none;stroke-dashoffset:0;stroke-opacity:1;paint-order:markers stroke fill"
       d="M 216.07227 508.76953 L 216.07227 563.94922 L 228.10742 563.94922 L 228.10742 544.30273 L 231.88672 544.30273 L 231.88672 563.94922 L 254.71875 563.94922 L 254.71875 508.76953 L 245.19727 508.76953 L 245.19727 527.16211 L 241.41797 527.16211 L 241.41797 508.76953 L 216.07227 508.76953 z M 258.49805 508.76953 L 258.49805 563.94922 L 268.02148 563.94922 L 268.02148 544.30273 L 271.80078 544.30273 L 271.80078 563.94922 L 307.92773 563.94922 L 307.92773 546.19336 L 294.62695 546.19336 L 294.62695 537.62305 L 277.38281 531.70312 L 294.62695 525.8125 L 294.62695 508.76953 L 258.49805 508.76953 z M 298.40625 508.76953 L 298.40625 528.51367 L 289.05273 531.71094 L 298.40625 534.92188 L 298.40625 542.41406 L 311.70703 542.41406 L 311.70703 563.94922 L 330.89258 563.94922 L 330.89258 508.76953 L 311.70703 508.76953 L 311.70703 527.16211 L 307.92773 527.16211 L 307.92773 508.76953 L 298.40625 508.76953 z M 268.02148 520.55664 L 271.80078 520.55664 L 271.80078 527.16211 L 268.02148 527.16211 L 268.02148 520.55664 z "
       transform="scale(0.26458333)"
       id="rect815" />
    <g
       id="g1144"
       style="stroke-width:1;stroke-miterlimit:4;stroke-dasharray:none">
      <g
         id="g1133"
         style="stroke-width:1;stroke-miterlimit:4;stroke-dasharray:none">
        <g
           id="g1121"
           style="stroke-width:1;stroke-miterlimit:4;stroke-dasharray:none" />
      </g>
    </g>
  </g>
</svg>
